<svg xmlns="http://www.w3.org/2000/svg" fill="none" viewBox="0 0 200 200"><g id="cryptocurrency--cryptocurrency-crypto-web 3.0-metaverse-bitcoin-ethereum-cryptocurrency"><g id="arrow"><path id="vector" fill="#501200" d="M31.668 140.014C31.735 139.814 52.158 120.06 53.259 120.06C54.107 120.06 62.146 128.525 66.859 133.57C66.9171 133.632 66.9482 133.714 66.9455 133.799C66.9427 133.884 66.9064 133.964 66.8445 134.023C66.7826 134.081 66.7001 134.112 66.6152 134.109C66.5304 134.106 66.4501 134.07 66.392 134.008C61.834 129.132 54.363 121.346 53.262 120.723C51.609 121.69 33.262 139.04 32.239 140.29C32.022 140.556 31.547 140.382 31.668 140.014Z"></path><path id="vector_2" fill="#501200" d="M145.327 142.08C144.835 142.08 140.117 137.375 131.304 128.096C131.251 128.033 131.225 127.953 131.229 127.871C131.234 127.79 131.269 127.713 131.329 127.656C131.388 127.6 131.467 127.569 131.549 127.568C131.63 127.568 131.709 127.599 131.769 127.655C136.7 132.841 144.2 140.6 145.33 141.4C147.167 140.223 166.375 123.339 166.53 123.211C166.597 123.165 166.679 123.146 166.759 123.158C166.839 123.17 166.912 123.212 166.962 123.275C167.013 123.338 167.038 123.419 167.032 123.499C167.026 123.58 166.989 123.656 166.93 123.711C165.948 124.522 146.185 142.08 145.327 142.08Z"></path><path id="vector_3" fill="#501200" d="M167.67 126.672C168.105 124.584 168.537 122.283 168.611 121.537C167.865 121.611 165.545 122.149 163.459 122.695C163.378 122.714 163.292 122.701 163.22 122.658C163.148 122.615 163.096 122.546 163.075 122.465C163.054 122.384 163.065 122.298 163.107 122.225C163.148 122.152 163.216 122.099 163.297 122.076C168.957 120.592 169.085 120.839 169.215 121.102C169.272 121.215 169.405 121.48 168.298 126.802C168.275 126.879 168.223 126.944 168.154 126.985C168.085 127.026 168.003 127.04 167.925 127.024C167.846 127.007 167.776 126.962 167.729 126.897C167.682 126.832 167.661 126.752 167.67 126.672V126.672Z"></path></g><g id="mobile"><path id="vector_4" fill="#ffffff" d="M83.4599 101.455C83.4769 100.155 82.5529 92.213 89.8159 92.213C97.0789 92.213 111.126 92.346 113.554 92.56C115.982 92.774 119.164 94.073 119.164 99.595C119.164 105.117 118.736 148.119 118.721 148.532C118.625 149.155 118.308 149.722 117.829 150.131C117.35 150.541 116.74 150.764 116.11 150.762C114.13 150.762 112.57 149.057 111.022 145.724C109.474 142.391 106.247 137.718 103.693 138.837C101.139 139.956 103.672 145.275 104.205 146.746C104.738 148.217 106.099 151.758 105.922 154.946L91.4399 154.776C91.4399 154.776 94.6289 152.916 94.6729 144.915C94.7099 138.224 98.7049 131.373 96.5329 129.547C92.8329 126.433 88.3989 138.124 85.7119 140.782C84.3349 142.144 83.4599 141.339 83.4599 141.339V101.455Z"></path><path id="vector_5" fill="#fccac2" d="M91.3239 110.112H89.1119C88.7504 110.112 88.4037 110.256 88.1481 110.511C87.8925 110.767 87.7489 111.113 87.7489 111.475V137.975C88.3659 135.983 92.7189 130.527 92.7189 130.527V111.468C92.7095 111.105 92.5583 110.759 92.2976 110.506C92.0369 110.252 91.6874 110.111 91.3239 110.112Z"></path><path id="vector_6" fill="#fccac2" d="M98.6 115.715H96.391C96.212 115.715 96.0348 115.75 95.8694 115.818C95.7041 115.887 95.5538 115.987 95.4272 116.114C95.3007 116.24 95.2002 116.39 95.1317 116.556C95.0632 116.721 95.028 116.898 95.028 117.077V152.887L99.996 152.843V117.074C99.9876 116.71 99.8366 116.363 99.5756 116.109C99.3146 115.855 98.9643 115.714 98.6 115.715V115.715Z"></path><path id="vector_7" fill="#fccac2" d="M105.8 113.117H103.591C103.23 113.117 102.883 113.26 102.628 113.516C102.373 113.771 102.229 114.118 102.229 114.479V152.988L107.197 152.944V114.477C107.188 114.113 107.037 113.766 106.776 113.512C106.515 113.258 106.165 113.116 105.8 113.117V113.117Z"></path><path id="vector_8" fill="#fccac2" d="M114.773 109.186C114.765 108.821 114.613 108.474 114.351 108.22C114.089 107.965 113.738 107.824 113.373 107.826H111.165C110.986 107.826 110.809 107.861 110.643 107.929C110.478 107.998 110.328 108.098 110.201 108.225C110.075 108.351 109.974 108.501 109.906 108.667C109.837 108.832 109.802 109.009 109.802 109.188V143.609C110.993 146.219 112.68 148.571 114.77 150.536L114.773 109.186Z"></path><path id="vector_9" fill="#fccac2" d="M96 154.858C94.5193 157.67 92.1192 159.89 89.2 161.146C89.2 161.146 78.482 154.871 72.951 153.306C72.951 153.306 71.124 136.943 74.165 129.356C76.065 124.608 83.377 116.527 83.377 116.527V141.2C83.377 141.2 84.053 142.4 85.709 140.787C87.872 138.676 92.655 127.316 95.998 129.331C99.211 131.267 95.398 136.085 95.039 141.82C94.828 145.156 95.039 151.42 91.439 154.781L96 154.858Z"></path><path id="vector_10" fill="#fccac2" d="M105.922 154.946H100.7C101.251 158.092 102.471 161.083 104.276 163.717C106.082 166.352 108.431 168.568 111.166 170.218C111.166 170.218 123.685 161.124 127.346 159.146C127.346 159.146 128.468 148.458 124.746 139.054C123.155 135.033 118.929 131.068 118.929 131.068L118.629 149.344C118.305 149.755 117.898 150.094 117.436 150.339C116.973 150.585 116.464 150.731 115.942 150.768C113.315 150.768 111.927 147.425 110.042 143.823C108.157 140.221 105.29 138.01 103.695 138.837C99.825 140.841 106.261 147.543 105.922 154.946Z"></path><path id="vector_11" fill="#ffffff" d="M108.771 172.639C108.771 172.639 112.343 167.974 128.818 158.511C128.818 158.511 133.956 161.944 146.611 177.201C146.611 177.201 137.941 193.631 120.658 194.794C120.658 194.794 111.148 181.054 108.771 172.639Z"></path><path id="vector_12" fill="#ffffff" d="M69.09 152.09C76.7419 154.347 83.9868 157.805 90.554 162.335C90.554 162.335 90.554 167.192 84.679 186.693C84.679 186.693 65.266 187.209 56.423 176.979C56.423 176.979 62.432 161.877 69.09 152.09Z"></path><path id="vector_13" fill="#501200" d="M146.8 177.056C146.7 176.876 131.107 158.516 128.8 158.333C128.376 158.414 127.97 158.568 127.6 158.788C128.553 154.382 127.106 142.851 124.69 138.269C123.384 135.792 122.062 134.28 119.272 130.604C119.421 117.457 119.607 100.132 119.56 99.063C119.46 97.13 118.705 92.581 113.697 92.229C108.743 91.898 91.6969 91.876 89.8969 91.962C84.3439 92.207 83.2229 95.678 83.2439 100.814C83.2559 103.342 83.2239 109.534 83.1779 116.332C82.4709 117.132 75.0279 125.553 73.8839 129.298C71.1079 138.381 72.327 147.063 72.549 152.798C69.606 151.763 69.0729 151.88 68.9229 152.007C66.0229 154.442 56.3029 176.262 56.2069 176.907C56.1936 177.013 56.2207 177.12 56.2829 177.207C63.5829 186.683 84.1989 187.392 84.8339 186.984C85.0469 186.848 91.5279 164.052 90.8259 162.246C90.5417 161.826 90.1656 161.475 89.7259 161.222C92.4356 159.843 94.7142 157.747 96.313 155.161L100.491 155.21C100.478 155.257 101.891 165.027 110.725 170.33C109.876 170.919 109.126 171.638 108.501 172.46C107.901 174.171 117.917 191.625 119.974 194.322C120.18 194.592 120.506 195.034 120.81 195.004C137.8 193.804 146.489 178.038 146.576 177.879C146.857 177.358 146.894 177.22 146.8 177.056ZM89.9289 92.6C91.7229 92.514 108.722 92.535 113.656 92.866C118.151 93.176 118.834 97.319 118.92 99.092C118.995 100.768 118.469 144.858 118.461 145.318C118.408 148.307 118.721 149.828 116.384 150.286C116.384 150.286 116.927 149.894 117.009 147.368C117.3 138.301 117.681 102.368 117.724 100.651C117.884 94.618 113.901 94.127 113.442 94.084C112.46 94.009 109.75 93.902 108.957 93.977C108.284 94.041 107.206 95.882 106.857 95.92C106.057 96.009 97.2569 95.91 96.4129 95.835C96.0339 95.857 95.2659 93.982 93.9359 93.835C92.7508 93.7146 91.5577 93.6932 90.3689 93.771C85.084 93.931 85.1269 98.534 85.1479 100.755C85.1479 100.755 84.7629 140.99 84.7739 141.022C84.6223 141.162 84.4274 141.246 84.2213 141.261C84.0153 141.275 83.8106 141.219 83.6409 141.101C83.5299 141.059 83.9519 113.911 83.8879 100.801C83.8629 94.952 85.4439 92.805 89.9289 92.6ZM92.1109 154.468C92.4899 154.039 92.8346 153.58 93.1419 153.097C93.1649 153.103 105.299 153.278 105.532 153.272C105.556 153.672 105.598 154.58 105.6 154.624C103.907 154.606 94.7709 154.494 92.1109 154.471V154.468ZM93.5039 152.49C95.8889 148.108 94.1879 144.74 96.2609 137.224C97.0609 134.324 98.1609 131.682 97.2749 130.069C97.0793 129.721 96.8062 129.423 96.4767 129.197C96.1472 128.972 95.7702 128.825 95.3749 128.769C93.1229 128.38 90.5749 132.431 88.1989 136.51C87.7609 137.258 86.4499 139.954 85.3989 140.568L85.7839 100.749C85.7619 98.592 85.7189 94.556 90.3839 94.417C91.5473 94.3251 92.7168 94.3466 93.8759 94.481C94.9199 94.619 95.5099 96.449 96.3529 96.481C97.1249 96.507 106.139 96.615 106.978 96.555C107.688 96.505 108.749 94.648 109.028 94.612C110.481 94.5676 111.936 94.607 113.385 94.73C114.025 94.783 117.218 95.317 117.079 100.645C117.037 102.364 116.695 138.296 116.364 147.345C116.31 148.818 116.372 149.815 115.336 150.413C113.801 150.147 113.054 148.487 111.559 145.935C111.132 145.209 107.081 136.914 103.593 138.567C99.9689 140.286 104.368 147.46 104.682 148.829C105.04 150.08 105.307 151.355 105.482 152.644C104.119 152.669 97.8889 152.574 93.4999 152.493L93.5039 152.49ZM84.382 186.445C82.575 186.46 65.0089 186.196 56.8659 176.893C57.2149 175.661 60.7359 167.957 63.9839 161.53C65.4189 162.502 76.5839 169.881 88.2919 172.412C86.7559 178.422 84.831 185.162 84.382 186.448V186.445ZM90.2669 162.545C90.5179 163.121 89.6199 167.168 88.4509 171.785C76.6059 169.231 65.2959 161.645 64.2759 160.948C66.4659 156.648 68.4829 153.032 69.2479 152.543C70.5719 152.144 88.9899 160.31 90.2669 162.553V162.545ZM89.1169 160.787C84.0355 157.767 78.7114 155.175 73.1999 153.039C72.9999 147.264 71.7129 138.587 74.4999 129.486C75.4619 126.334 81.2669 119.402 83.0849 117.312V140.656C82.6855 140.178 82.3801 139.629 82.1849 139.038C82.167 138.955 82.1169 138.882 82.0455 138.836C81.9742 138.79 81.8875 138.775 81.8044 138.792C81.7214 138.81 81.6489 138.861 81.6029 138.932C81.5568 139.003 81.541 139.09 81.5589 139.173C81.5769 139.256 82.2359 141.837 84.2879 141.84C85.3189 141.84 86.3879 140.761 87.4879 138.967C87.8939 138.305 92.7439 128.967 95.2409 129.389C95.5472 129.427 95.8401 129.537 96.096 129.71C96.3519 129.882 96.5636 130.112 96.7139 130.382C97.4719 131.738 96.4219 134.25 95.6569 137.013C95.0056 139.506 94.5944 142.056 94.4289 144.627C94.2899 148.941 94.1619 153.02 88.6199 156.597C88.5561 156.647 88.5133 156.719 88.5001 156.798C88.487 156.878 88.5045 156.96 88.5491 157.027C88.5937 157.095 88.6622 157.143 88.7407 157.162C88.8193 157.182 88.9023 157.17 88.9729 157.131C89.8895 156.546 90.7428 155.868 91.5189 155.107C91.9639 155.107 93.5729 155.125 95.5659 155.148C93.9729 157.584 91.7424 159.538 89.1169 160.795V160.787ZM101.095 155.205L105.631 155.26C105.587 158.8 106.808 162.24 109.075 164.96C109.129 165.025 109.206 165.066 109.29 165.074C109.374 165.082 109.458 165.057 109.523 165.003C109.588 164.949 109.629 164.872 109.637 164.788C109.645 164.704 109.62 164.62 109.566 164.555C104.776 158.719 107.277 154.58 105.284 148.58C104.695 146.807 101.095 140.39 103.896 139.119C106.678 137.857 110.58 145.526 111.007 146.242C112.225 148.324 113.131 150.057 114.339 150.662C116.861 151.927 120.47 149.69 120.705 146.74C120.709 146.658 120.681 146.577 120.628 146.515C120.574 146.452 120.498 146.413 120.416 146.405C120.334 146.396 120.252 146.42 120.187 146.47C120.122 146.521 120.079 146.595 120.067 146.676C119.944 147.539 119.568 148.346 118.987 148.996C119.126 144.955 119.087 146.996 119.261 131.635C120.435 133.18 123.6 137.008 124.397 139.05C126.824 145.446 127.701 152.325 126.956 159.125C121.518 162.397 116.28 165.99 111.269 169.884C110.762 169.633 103.311 165.659 101.1 155.213L101.095 155.205ZM128.737 158.963C129.482 159.034 132.602 162.163 136.007 165.818C130.227 173.304 122.451 179.006 113.573 182.267C111.087 177.606 108.973 173.249 109.109 172.66C109.567 171.361 127.191 159.073 128.737 158.971V158.963ZM120.847 194.347C119.985 193.702 116.741 188.166 113.88 182.84C122.797 179.537 130.614 173.809 136.449 166.3C140.779 170.974 145.422 176.325 146.171 177.273C145.4 179.155 136.293 193.221 120.847 194.355V194.347Z"></path><path id="vector_14" fill="#501200" d="M98.2809 111.259C97.9349 111.259 97.3049 110.711 88.8019 104.23C88.74 104.177 88.7007 104.102 88.6922 104.02C88.6836 103.939 88.7065 103.857 88.756 103.792C88.8055 103.727 88.8779 103.684 88.9586 103.67C89.0392 103.657 89.122 103.675 89.1899 103.72C92.4899 106.236 97.4069 109.964 98.2749 110.577C99.0749 110.11 101.946 108.616 112.602 103.111C112.677 103.076 112.762 103.072 112.841 103.099C112.919 103.126 112.984 103.182 113.021 103.255C113.059 103.329 113.067 103.414 113.044 103.493C113.021 103.573 112.968 103.64 112.896 103.681C109.022 105.682 98.6289 111.259 98.2809 111.259Z"></path><path id="vector_15" fill="#501200" d="M113.871 175.562C114.323 175.562 114.69 175.195 114.69 174.743C114.69 174.291 114.323 173.924 113.871 173.924C113.419 173.924 113.052 174.291 113.052 174.743C113.052 175.195 113.419 175.562 113.871 175.562Z"></path><path id="vector_16" fill="#501200" d="M85.935 166.302C86.3873 166.302 86.754 165.935 86.754 165.483C86.754 165.031 86.3873 164.664 85.935 164.664C85.4826 164.664 85.116 165.031 85.116 165.483C85.116 165.935 85.4826 166.302 85.935 166.302Z"></path></g><g id="crypto coin"><path id="vector_17" fill="#ffffff" d="M103.946 79.827C121.967 79.827 136.576 65.1805 136.576 47.113C136.576 29.0456 121.967 14.399 103.946 14.399C85.925 14.399 71.316 29.0456 71.316 47.113C71.316 65.1805 85.925 79.827 103.946 79.827Z"></path><path id="vector_18" fill="#ffb949" d="M103.575 75.163C119.021 75.163 131.542 62.6418 131.542 47.196C131.542 31.7503 119.021 19.229 103.575 19.229C88.1293 19.229 75.608 31.7503 75.608 47.196C75.608 62.6418 88.1293 75.163 103.575 75.163Z"></path><path id="vector_19" fill="#ffffff" d="M108.53 45.533C110.181 44.5009 111.541 43.0652 112.483 41.3613C113.424 39.6575 113.916 37.7418 113.912 35.795C113.698 30.157 106.17 28.117 106.17 28.117V23.643L102.764 23.558V27.711L100.436 27.658L100.383 23.6H97.275C97.2 23.6 97 27.519 97 27.519L91.564 27.743L91.607 32.025L95.207 32.207L95.484 61.476L91.448 61.636V66.057L97.47 66.185L97.535 70.018H100.909L100.994 66.34H103.13V70.189H106.109L106.237 65.907C106.237 65.907 118.261 63.675 118.517 55.635C118.824 45.9 108.53 45.533 108.53 45.533ZM100.34 32.495C100.34 32.495 108.274 31.673 108.274 37.407C108.274 41.796 100.34 42.97 100.34 42.97V32.495ZM100.34 61.095V49.409C100.34 49.409 111.64 48.256 111.828 54.62C112.011 60.461 100.342 61.094 100.342 61.094L100.34 61.095Z"></path><path id="vector_20" fill="#501200" d="M102.964 70.474C102.698 70.427 102.75 68.964 102.774 66.602C102.403 66.588 101.704 66.597 101.33 66.613C101.257 68.83 101.523 70.335 101.038 70.336C99.8382 70.3708 98.6374 70.3284 97.443 70.209C97.12 70.057 97.265 69.976 97.163 66.53C95.2172 66.5686 93.271 66.4831 91.336 66.274C90.999 66.013 91.078 62.528 91.079 62.493C91.113 61.673 91.193 61.486 91.359 61.377C91.525 61.268 94.875 61.24 95.216 61.214C95.221 59.296 95.038 42.038 94.93 32.528C91.602 32.428 91.551 32.411 91.407 32.122C91.1526 30.6646 91.1148 29.1775 91.295 27.709C91.375 27.489 91.49 27.155 96.807 27.203C96.933 23.434 96.93 23.403 97.17 23.34C98.2421 23.163 99.3336 23.1364 100.413 23.261C100.849 23.306 100.699 23.503 100.699 27.361C101.138 27.39 102.04 27.424 102.499 27.433C102.499 27.122 102.499 26.586 102.493 26.133C102.466 23.397 102.473 23.344 102.823 23.289C103.935 23.1117 105.071 23.1432 106.171 23.382C106.446 23.462 106.585 23.503 106.471 27.874C107.78 28.274 113.823 30.393 114.186 35.744C114.279 37.6451 113.875 39.5376 113.015 41.2355C112.155 42.9335 110.868 44.3783 109.28 45.428C110.288 45.557 119.022 46.458 118.898 55.278C118.78 63.613 107.64 66.028 106.553 66.194C106.54 69.549 106.689 70.225 106.353 70.423C105.811 70.734 103.293 70.532 102.964 70.474ZM103.445 69.828C104.252 69.9195 105.068 69.9124 105.873 69.807C105.94 65.935 105.836 65.75 106.125 65.634C106.157 65.621 118.259 63.334 118.257 55.26C118.257 46.36 108.715 45.985 108.303 45.973C108.234 45.969 108.168 45.9426 108.115 45.8979C108.062 45.8532 108.025 45.7925 108.009 45.725C107.993 45.6575 108 45.5867 108.028 45.5232C108.056 45.4598 108.104 45.4071 108.164 45.373C108.223 45.343 113.987 42.251 113.548 35.783C113.174 30.275 106.137 28.437 106.066 28.419C105.996 28.401 105.933 28.3596 105.889 28.3017C105.845 28.2438 105.822 28.1727 105.824 28.1C105.869 26.395 105.877 24.505 105.824 23.953C104.939 23.7963 104.036 23.7734 103.144 23.885C103.117 24.317 103.132 27.776 103.068 27.924C102.948 28.2 100.258 28.178 100.168 27.876C100.122 27.72 100.097 24.323 100.091 23.882C99.2569 23.8027 98.4164 23.8192 97.586 23.931C97.547 24.571 97.48 26.374 97.441 27.541C97.4379 27.6239 97.4029 27.7023 97.3432 27.7599C97.2836 27.8175 97.204 27.8498 97.121 27.85C95.3726 27.8098 93.6234 27.8709 91.8821 28.033C91.7859 29.2728 91.81 30.5189 91.954 31.754C92.398 31.802 93.9 31.864 95.26 31.9C95.3428 31.9026 95.4213 31.937 95.4792 31.9961C95.5372 32.0551 95.5701 32.1343 95.571 32.217C95.9 61.337 95.89 61.644 95.784 61.737C95.539 61.952 95.6511 61.892 91.7711 61.922C91.6871 63.1938 91.6991 64.4701 91.807 65.74C92.778 65.82 96.907 65.898 97.371 65.908C97.971 65.92 97.925 65.808 97.862 69.659C98.7794 69.7387 99.7004 69.7704 100.621 69.754C100.647 67.195 100.399 66.08 100.954 66.048C100.966 66.048 102.42 66.061 103.037 66.059C103.587 66.054 103.447 66.314 103.445 69.828Z"></path><path id="vector_21" fill="#501200" d="M100.685 61.406C100.156 61.406 100.113 61.285 100.085 61.206C100.057 61.127 100.046 61.085 100.002 49.406C100.002 49.3244 100.033 49.2458 100.088 49.1861C100.144 49.1265 100.221 49.0903 100.302 49.085C100.602 49.063 111.927 48.11 112.202 54.485C112.465 60.765 101.144 61.406 100.685 61.406ZM100.642 49.702C100.653 52.709 100.681 59.277 100.699 60.771C104.763 60.524 111.754 58.709 111.554 54.502C111.3 49.188 102.012 49.644 100.643 49.7L100.642 49.702Z"></path><path id="vector_22" fill="#501200" d="M100.393 43.24C100.349 43.246 100.304 43.2424 100.261 43.2296C100.218 43.2168 100.178 43.195 100.144 43.1657C100.111 43.1363 100.084 43.1002 100.065 43.0595C100.046 43.0189 100.036 42.9747 100.036 42.93C100.036 42.811 99.959 32.545 99.959 32.545C99.9581 32.4631 99.9887 32.3839 100.045 32.324C100.1 32.264 100.177 32.2279 100.259 32.223C100.339 32.215 108.504 31.702 108.68 36.845C108.859 42.169 101.207 43.24 100.393 43.24ZM100.637 32.85V42.582C101.699 42.419 108.225 41.298 108.037 36.909C107.87 32.92 102.028 32.811 100.637 32.85Z"></path><path id="vector_23" fill="#501200" d="M136.917 47.14C136.916 39.7313 134.422 32.5384 129.837 26.7192C125.252 20.9 118.842 16.793 111.639 15.0595C104.435 13.3259 96.8587 14.0667 90.1277 17.1625C83.3968 20.2582 77.9035 25.5289 74.532 32.126C72.2564 36.7522 71.0192 41.8197 70.907 46.974V46.988C71.286 71.678 93.475 82.16 107.747 79.915C107.747 79.915 107.754 79.923 107.787 79.915C123.5 78.292 136.917 64.454 136.917 47.14ZM122.717 68.082L125.631 71.115C120.742 75.5555 114.608 78.3884 108.057 79.231L107.739 75.243C113.336 74.4121 118.554 71.917 122.715 68.082H122.717ZM103.587 74.91C98.1182 74.9102 92.7723 73.2887 88.2251 70.2506C83.6779 67.2124 80.1338 62.8941 78.0409 57.8417C75.948 52.7893 75.4004 47.2297 76.4672 41.866C77.5341 36.5023 80.1675 31.5755 84.0345 27.7085C87.9015 23.8415 92.8283 21.2081 98.192 20.1413C103.556 19.0744 109.115 19.6221 114.168 21.7149C119.22 23.8078 123.538 27.3519 126.577 31.8991C129.615 36.4463 131.236 41.7923 131.236 47.261C131.228 54.5914 128.312 61.6191 123.128 66.8025C117.945 71.9858 110.917 74.9015 103.587 74.91V74.91ZM94.8 74.147L93.575 77.8C92.83 77.548 92.093 77.278 91.375 76.974L93.019 73.491C93.6063 73.7297 94.2 73.9484 94.8 74.147ZM75.951 63.411L79.163 61.511C79.5137 62.111 79.885 62.6967 80.277 63.268L77.257 65.468C76.795 64.8014 76.3596 64.1157 75.951 63.411ZM71.55 47.32L75.302 47.447C75.3286 52.1731 76.5465 56.8163 78.843 60.947L75.63 62.847C72.9793 58.0994 71.5756 52.7574 71.55 47.32V47.32ZM74.977 32.662L78.384 34.437C76.4251 38.2701 75.3731 42.5019 75.309 46.806L71.557 46.68C71.6204 41.8086 72.7898 37.0153 74.977 32.662V32.662ZM76.559 29.868L79.849 31.902C79.434 32.54 79.039 33.194 78.676 33.867L75.27 32.092C75.67 31.332 76.0996 30.5907 76.559 29.868ZM100.053 19.2L99.663 15.063C100.352 14.9723 101.048 14.903 101.749 14.855L101.942 19.023C101.306 19.059 100.677 19.121 100.053 19.2ZM127.129 24.626C127.529 25.0407 127.92 25.4663 128.303 25.903L125.016 28.824C124.655 28.4047 124.283 27.9967 123.899 27.6L127.129 24.626ZM133.562 34.186L129.547 36.033C128.496 33.6113 127.112 31.3484 125.434 29.31L128.722 26.387C130.697 28.7438 132.326 31.3694 133.562 34.185V34.186ZM131.462 52.035L135.744 52.935C135.609 53.678 135.456 54.415 135.271 55.135L131.058 54C131.219 53.354 131.355 52.6987 131.465 52.034L131.462 52.035ZM135.862 52.306C135.862 52.306 131.588 51.435 131.568 51.435C132.386 46.4296 131.771 41.295 129.795 36.624L133.818 34.774C136.116 40.3141 136.823 46.3852 135.86 52.305L135.862 52.306ZM126.684 24.167L123.452 27.142C120.722 24.4206 117.459 22.2927 113.867 20.8916C110.276 19.4905 106.434 18.8465 102.582 19L102.388 14.817C111.723 14.134 120.83 18.364 126.682 24.166L126.684 24.167ZM99.027 15.143L99.417 19.281C95.5537 19.861 91.8522 21.2338 88.5451 23.3132C85.238 25.3926 82.3968 28.1337 80.2 31.364L76.906 29.328C79.3987 25.5504 82.6548 22.3367 86.4647 19.8936C90.2746 17.4505 94.5539 15.8323 99.027 15.143V15.143ZM77.627 65.992L80.647 63.787C83.6479 67.9452 87.7171 71.2149 92.424 73.25L90.788 76.715C85.5301 74.3676 80.989 70.6674 77.628 65.992H77.627ZM94.181 78.009L95.414 74.342C99.1973 75.4893 103.18 75.8239 107.102 75.324L107.42 79.312C102.964 79.8019 98.4556 79.3581 94.181 78.009ZM126.1 70.674L123.184 67.639C126.891 64.0811 129.559 59.5817 130.904 54.623L135.104 55.757C133.521 61.4582 130.407 66.6171 126.1 70.674V70.674Z"></path></g><g id="crypto coins"><g id="group"><path id="vector_24" fill="#ffffff" d="M151.42 113.53C160.771 113.53 168.352 105.915 168.352 96.522C168.352 87.1288 160.771 79.514 151.42 79.514C142.069 79.514 134.488 87.1288 134.488 96.522C134.488 105.915 142.069 113.53 151.42 113.53Z"></path><path id="vector_25" fill="#ffb949" d="M151.353 111.08C159.322 111.08 165.783 104.594 165.783 96.593C165.783 88.5921 159.322 82.106 151.353 82.106C143.383 82.106 136.923 88.5921 136.923 96.593C136.923 104.594 143.383 111.08 151.353 111.08Z"></path><path id="vector_26" fill="#ffffff" d="M146.4 97.063C146.4 97.063 151.1 86.655 151.353 86.633C151.606 86.611 156.144 97.063 156.144 97.063C156.144 97.063 151.6 104.732 151.307 104.791C151.014 104.85 146.4 97.063 146.4 97.063Z"></path><path id="vector_27" fill="#501200" d="M156.325 96.836C156.271 96.688 152.025 86.164 151.36 86.164C150.96 86.164 148.529 91.625 146.255 96.75C146.173 96.912 146.157 97.0996 146.211 97.273C149.257 102.444 151.111 105.011 151.189 105.085C151.212 105.105 151.239 105.12 151.268 105.129C151.298 105.138 151.329 105.141 151.359 105.137C151.389 105.133 151.419 105.122 151.445 105.106C151.471 105.09 151.493 105.069 151.51 105.043C151.546 104.979 156.176 97.892 156.358 97.151C156.381 97.0452 156.369 96.9348 156.325 96.836V96.836ZM151.36 87.018C152.182 88.598 155.749 96.703 155.792 96.852C155.567 97.002 151.777 99.405 151.392 99.629C150.954 99.429 147.068 97.119 146.822 96.959C146.886 96.82 150.666 88.363 151.36 87.018V87.018ZM151.328 104.338C150.687 103.388 148.712 100.323 147.078 97.792C147.078 97.792 151.196 100.236 151.424 100.227C152.838 99.528 154.191 98.7135 155.471 97.792C154.3 99.714 151.926 103.436 151.328 104.338V104.338Z"></path><path id="vector_28" fill="#501200" d="M160.119 81.659C158.519 80.625 151.986 77.669 145.419 80.41C142.652 81.564 134.199 85.524 134.198 96.534C134.174 98.8031 134.603 101.054 135.46 103.155C136.317 105.257 137.585 107.165 139.19 108.77C140.794 110.375 142.703 111.643 144.804 112.5C146.906 113.357 149.157 113.786 151.426 113.761C160.153 113.67 164.341 108.313 166.326 105.27C168.137 102.5 172.612 89.737 160.119 81.659ZM166.382 89.268L164.649 90.134C163.421 87.6221 161.508 85.5077 159.132 84.034L160.081 82.325C162.801 83.9902 164.988 86.3995 166.382 89.268V89.268ZM165.569 96.597C165.569 99.4055 164.736 102.151 163.176 104.486C161.616 106.821 159.398 108.641 156.803 109.716C154.208 110.791 151.353 111.072 148.599 110.524C145.844 109.976 143.314 108.624 141.328 106.638C139.342 104.652 137.99 102.122 137.442 99.3673C136.894 96.6128 137.175 93.7576 138.25 91.1629C139.325 88.5682 141.145 86.3505 143.48 84.7901C145.815 83.2298 148.561 82.397 151.369 82.397C155.135 82.4005 158.745 83.898 161.407 86.561C164.07 89.2239 165.566 92.8345 165.569 96.6V96.597ZM158.547 81.497C158.895 81.6623 159.238 81.8393 159.575 82.028L158.63 83.728C158.361 83.575 158.083 83.438 157.804 83.302L158.547 81.497ZM158.013 81.253L157.275 83.053C154.352 81.791 151.102 81.4977 148 82.216L147.518 80.377C151.425 79.149 155.944 80.364 158.013 81.256V81.253ZM146.949 80.52L147.431 82.36C147.164 82.434 146.9 82.513 146.64 82.601L145.958 80.833C146.285 80.722 146.614 80.617 146.949 80.523V80.52ZM145.406 81.035L146.087 82.803C144.007 83.6048 142.134 84.8654 140.609 86.491L139.215 85.265C140.931 83.4044 143.048 81.9588 145.406 81.038V81.035ZM138.82 85.7L140.214 86.925C138.814 88.5356 137.78 90.4304 137.183 92.479L135.417 92.045C136.074 89.7067 137.235 87.5408 138.82 85.7V85.7ZM135.271 92.613L137.037 93.047C136.974 93.299 136.91 93.547 136.861 93.804L135.061 93.582C135.122 93.258 135.193 92.936 135.271 92.616V92.613ZM134.971 94.163L136.771 94.385C136.352 97.0204 136.672 99.7202 137.694 102.185L136.054 102.885C134.901 100.133 134.527 97.1164 134.974 94.166L134.971 94.163ZM136.297 103.426L137.933 102.726C138.059 103.002 138.185 103.278 138.328 103.544L136.789 104.449C136.612 104.119 136.457 103.773 136.3 103.429L136.297 103.426ZM143.723 111.269C140.969 109.82 138.673 107.631 137.094 104.949L138.624 104.049C140.066 106.505 142.184 108.494 144.724 109.781L143.723 111.269ZM144.257 111.527L145.257 110.039C148.535 111.544 152.253 111.79 155.7 110.728L156.232 112.456C152.267 113.665 147.992 113.334 144.26 111.53L144.257 111.527ZM156.789 112.267L156.255 110.531C156.495 110.446 156.737 110.365 156.972 110.268L157.729 111.922C157.424 112.051 157.108 112.161 156.792 112.27L156.789 112.267ZM158.265 111.682L157.507 110.027C160.165 108.805 162.404 106.825 163.941 104.335L165.641 105.135C163.898 108.01 161.328 110.293 158.268 111.685L158.265 111.682ZM165.943 104.633L164.248 103.833C165.038 102.433 165.593 100.913 165.889 99.333L167.779 99.519C167.455 101.314 166.836 103.043 165.946 104.636L165.943 104.633ZM167.868 98.933L165.978 98.747C166.02 98.461 166.063 98.176 166.088 97.885L167.988 97.923C167.957 98.269 167.92 98.606 167.871 98.94L167.868 98.933ZM168.026 97.333L166.118 97.295C166.247 95.0153 165.83 92.7378 164.901 90.652L166.622 89.793C167.688 92.1614 168.17 94.7507 168.029 97.344L168.026 97.333Z"></path></g><g id="group_2"><path id="vector_29" fill="#ffffff" d="M158.726 66.065C164.709 66.065 169.559 61.2149 169.559 55.232C169.559 49.2491 164.709 44.399 158.726 44.399C152.743 44.399 147.893 49.2491 147.893 55.232C147.893 61.2149 152.743 66.065 158.726 66.065Z"></path><path id="vector_30" fill="#ffb949" d="M158.748 63.692C163.433 63.692 167.231 59.894 167.231 55.209C167.231 50.524 163.433 46.726 158.748 46.726C154.063 46.726 150.265 50.524 150.265 55.209C150.265 59.894 154.063 63.692 158.748 63.692Z"></path><path id="vector_31" fill="#501200" d="M158.734 66.36C156.533 66.36 154.382 65.7075 152.553 64.4849C150.723 63.2624 149.297 61.5248 148.455 59.4917C147.613 57.4587 147.392 55.2217 147.822 53.0634C148.251 50.9052 149.311 48.9227 150.867 47.3667C152.423 45.8107 154.405 44.7511 156.563 44.3218C158.722 43.8925 160.959 44.1128 162.992 44.9549C165.025 45.797 166.762 47.2231 167.985 49.0527C169.207 50.8824 169.86 53.0335 169.86 55.234C169.857 58.1838 168.684 61.0119 166.598 63.0978C164.512 65.1836 161.684 66.3568 158.734 66.36V66.36ZM158.734 44.749C156.66 44.749 154.633 45.364 152.908 46.5163C151.184 47.6685 149.84 49.3063 149.046 51.2224C148.252 53.1385 148.045 55.247 148.449 57.2811C148.854 59.3152 149.853 61.1836 151.32 62.6501C152.786 64.1165 154.655 65.1152 156.689 65.5196C158.723 65.9241 160.831 65.7163 162.747 64.9225C164.663 64.1287 166.301 62.7845 167.453 61.06C168.605 59.3354 169.22 57.308 169.22 55.234C169.216 52.4543 168.11 49.7895 166.144 47.824C164.179 45.8585 161.514 44.7527 158.734 44.749V44.749Z"></path><path id="vector_32" fill="#501200" d="M158.734 64.039C156.993 64.039 155.292 63.5229 153.845 62.5559C152.398 61.589 151.27 60.2146 150.604 58.6066C149.938 56.9986 149.764 55.2292 150.103 53.5222C150.443 51.8152 151.281 50.2472 152.511 49.0165C153.742 47.7858 155.31 46.9476 157.017 46.6081C158.724 46.2685 160.494 46.4428 162.102 47.1089C163.71 47.7749 165.084 48.9028 166.051 50.35C167.018 51.7971 167.534 53.4985 167.534 55.239C167.53 57.5718 166.602 59.8079 164.952 61.4574C163.303 63.107 161.067 64.0353 158.734 64.039ZM158.734 47.07C157.119 47.07 155.541 47.5488 154.198 48.4459C152.856 49.343 151.809 50.618 151.191 52.1098C150.574 53.6015 150.412 55.2431 150.727 56.8267C151.042 58.4104 151.819 59.8651 152.961 61.0068C154.103 62.1486 155.558 62.9261 157.141 63.2411C158.725 63.5561 160.366 63.3945 161.858 62.7766C163.35 62.1586 164.625 61.1122 165.522 59.7697C166.419 58.4271 166.898 56.8487 166.898 55.234C166.895 53.0696 166.034 50.9946 164.504 49.4641C162.973 47.9336 160.898 47.0726 158.734 47.07V47.07Z"></path></g><g id="group_3"><path id="vector_33" fill="#ffffff" d="M52.674 109.486C64.9689 109.486 74.936 99.5553 74.936 87.305C74.936 75.0548 64.9689 65.124 52.674 65.124C40.379 65.124 30.412 75.0548 30.412 87.305C30.412 99.5553 40.379 109.486 52.674 109.486Z"></path><path id="vector_34" fill="#ffb949" d="M52.598 106.349C63.0582 106.349 71.538 97.8487 71.538 87.363C71.538 76.8773 63.0582 68.377 52.598 68.377C42.1377 68.377 33.658 76.8773 33.658 87.363C33.658 97.8487 42.1377 106.349 52.598 106.349Z"></path><path id="vector_35" fill="#ffffff" d="M46.931 88.582L43.942 89.906V86.456L46.909 85.172L47.197 78.728C48.6731 78.3177 50.206 78.1488 51.736 78.228V83.245L55.877 82.072V85.194L51.7 86.633V92.346L61.454 92.811L61.136 97.2L46.931 97V88.582Z"></path><path id="vector_36" fill="#501200" d="M54.092 97.493C46.827 97.435 46.7811 97.283 46.6921 96.981C46.6281 96.768 46.6921 89.543 46.6921 89.029C46.2751 89.223 45.5061 89.579 44.0391 90.173C43.9967 90.1996 43.9479 90.2145 43.8979 90.2161C43.8478 90.2176 43.7983 90.2059 43.7543 90.1819C43.7103 90.158 43.6735 90.1228 43.6476 90.0799C43.6217 90.0371 43.6077 89.9881 43.607 89.938C43.607 89.938 43.5601 86.75 43.5611 86.552C43.5611 86.313 43.561 86.14 46.682 84.971L46.8931 78.793C46.895 78.7246 46.9187 78.6586 46.9608 78.6046C47.0029 78.5506 47.0612 78.5115 47.127 78.493C48.6635 78.0659 50.2524 77.8572 51.847 77.873C51.9037 77.8768 51.9584 77.8954 52.0056 77.927C52.0529 77.9586 52.0909 78.002 52.1161 78.053C52.1281 78.078 52.142 81.442 52.057 82.887C53.2467 82.4472 54.4619 82.0798 55.696 81.787C55.81 81.764 56.116 81.707 56.218 81.987C56.3494 83.1324 56.2885 84.2916 56.038 85.417C55.88 85.683 55.9861 85.498 52.0271 86.817C52.0271 86.941 52.0161 91.454 51.9911 92.041C61.2311 92.47 61.691 92.369 61.772 92.735C61.7921 94.2868 61.6918 95.8377 61.472 97.374C61.4425 97.4116 61.4055 97.4427 61.3633 97.4652C61.3211 97.4878 61.2747 97.5013 61.2271 97.505C61.1831 97.5 55.579 97.505 54.092 97.493ZM47.292 96.65C48.792 96.891 59.161 96.876 60.954 96.863C61.033 96.153 61.1201 93.892 61.1361 93.086C60.1511 93.02 56.656 92.874 54.465 92.786C51.441 92.659 51.4411 92.659 51.3651 92.441C51.3491 92.394 51.3821 86.558 51.3821 86.558C51.4591 86.129 54.791 85.222 55.507 85.03C55.628 84.178 55.6655 83.3163 55.619 82.457C54.739 82.674 52.163 83.51 51.849 83.633C51.7962 83.6558 51.7382 83.6639 51.6811 83.6566C51.6241 83.6493 51.57 83.6268 51.5246 83.5914C51.4792 83.5561 51.4442 83.5091 51.4232 83.4556C51.4021 83.402 51.3959 83.3438 51.405 83.287H51.3931C51.4231 83.059 51.504 79.545 51.508 78.508C50.1605 78.522 48.8201 78.7068 47.5191 79.058L47.309 85.212C47.3071 85.2755 47.2863 85.337 47.2492 85.3887C47.2122 85.4403 47.1606 85.4798 47.1011 85.502C46.1145 85.8521 45.1465 86.2526 44.2011 86.702C44.2061 87.18 44.227 88.666 44.238 89.444C46.962 88.214 46.9841 88.144 47.1381 88.244C47.4521 88.443 47.229 95.3 47.292 96.65V96.65Z"></path><path id="vector_37" fill="#501200" d="M73.981 80.024C72.5853 76.0089 70.0843 72.4695 66.7659 69.8129C63.4475 67.1564 59.4465 65.4908 55.2233 65.0076C51.0001 64.5245 46.7263 65.2436 42.8936 67.0821C39.061 68.9206 35.8254 71.8038 33.559 75.4C31.744 78.254 26.488 88.979 34.181 100.133C36.2542 103.114 39.0219 105.546 42.245 107.219C45.4681 108.891 49.0498 109.754 52.681 109.733C68.525 109.73 79.009 93.786 73.981 80.024ZM73.781 93.007L71.251 92.371C72.1531 88.6851 72.0335 84.823 70.905 81.2L73.458 80.449C74.9387 84.4867 75.0508 88.8993 73.777 93.007H73.781ZM73.059 95.207L70.666 94.184C70.815 93.79 70.966 93.397 71.091 92.991L73.621 93.628C73.454 94.165 73.257 94.687 73.055 95.207H73.059ZM56.159 106.349L56.62 108.799C56.172 108.881 55.72 108.952 55.262 109.007L55.032 106.522C55.412 106.474 55.788 106.419 56.16 106.349H56.159ZM56.787 106.222C59.7477 105.566 62.5119 104.221 64.855 102.296L66.289 104.391C63.6499 106.503 60.5558 107.973 57.251 108.684L56.787 106.222ZM52.599 106.052C48.9027 106.052 45.2893 104.956 42.2159 102.902C39.1425 100.849 36.7471 97.9299 35.3326 94.515C33.9181 91.1 33.548 87.3423 34.2691 83.717C34.9902 80.0917 36.7702 76.7616 39.3839 74.1479C41.9976 71.5342 45.3276 69.7542 48.9529 69.0331C52.5783 68.312 56.336 68.6821 59.751 70.0966C63.1659 71.5112 66.0848 73.9066 68.1383 76.98C70.1919 80.0533 71.288 83.6667 71.288 87.363C71.2824 92.3178 69.3118 97.068 65.8083 100.572C62.3049 104.075 57.5547 106.046 52.6 106.052H52.599ZM33.857 98.425L35.926 97.093C36.075 97.346 36.226 97.599 36.384 97.846L34.467 99.428C34.25 99.1 34.057 98.762 33.857 98.425ZM31.045 90.54L33.513 90.263C33.8398 92.4617 34.546 94.5869 35.6 96.544L33.529 97.877C32.2677 95.6001 31.4262 93.1149 31.045 90.54V90.54ZM33.892 76.079L36.041 77.445C35.822 77.809 35.61 78.177 35.415 78.556L33.037 77.649C33.301 77.113 33.586 76.5897 33.892 76.079V76.079ZM45.192 69.515L44.054 67.158C44.586 66.929 45.134 66.734 45.686 66.548L46.403 69.071C46 69.21 45.589 69.35 45.194 69.515H45.192ZM67.054 70.815L65.187 72.723C64.919 72.493 64.643 72.274 64.363 72.059L66.1 70.028C66.4273 70.2833 66.746 70.547 67.056 70.819L67.054 70.815ZM63.854 71.674C61.7116 70.1264 59.2732 69.037 56.691 68.474L57.275 65.879C60.2805 66.5311 63.1137 67.8126 65.588 69.639L63.854 71.674ZM73.24 79.847L70.687 80.597C69.6193 77.7576 67.8998 75.2085 65.667 73.155L67.534 71.247C70.0927 73.6202 72.0479 76.57 73.237 79.851L73.24 79.847ZM56.64 65.762L56.056 68.357C53.0379 67.9166 49.9621 68.0866 47.011 68.857L46.3 66.34C49.6535 65.336 53.1969 65.1394 56.641 65.766L56.64 65.762ZM43.478 67.432L44.61 69.779C41.2421 71.3192 38.3845 73.7899 36.374 76.9L34.225 75.534C36.4776 72.0103 39.6876 69.2013 43.479 67.436L43.478 67.432ZM32.758 78.228L35.136 79.135C33.5822 82.4001 32.9859 86.0387 33.416 89.629L30.948 89.906C30.4508 85.9207 31.0777 81.8758 32.758 78.228ZM34.845 99.949L36.745 98.382C38.7415 101.245 41.4721 103.517 44.65 104.96L43.568 107.166C40.0804 105.563 37.0731 103.075 34.845 99.949V99.949ZM44.145 107.449L45.235 105.228C48.124 106.456 51.2781 106.928 54.4 106.6L54.629 109.075C51.0527 109.384 47.4546 108.825 44.141 107.445L44.145 107.449ZM66.792 103.99L65.34 101.869C67.5571 99.928 69.303 97.5074 70.445 94.791L72.837 95.813C71.4867 98.9724 69.4151 101.772 66.788 103.986L66.792 103.99Z"></path></g><g id="group_4"><path id="vector_38" fill="#ffffff" d="M47.668 55.226C52.0205 55.226 55.549 51.6832 55.549 47.313C55.549 42.9428 52.0205 39.4 47.668 39.4C43.3154 39.4 39.787 42.9428 39.787 47.313C39.787 51.6832 43.3154 55.226 47.668 55.226Z"></path><path id="vector_39" fill="#ffb949" d="M47.6841 53.492C51.0928 53.492 53.8561 50.718 53.8561 47.296C53.8561 43.8741 51.0928 41.1 47.6841 41.1C44.2754 41.1 41.5121 43.8741 41.5121 47.296C41.5121 50.718 44.2754 53.492 47.6841 53.492Z"></path><path id="vector_40" fill="#501200" d="M47.673 55.521C46.0512 55.521 44.4658 55.0401 43.1174 54.1391C41.7689 53.238 40.7179 51.9574 40.0972 50.459C39.4766 48.9607 39.3142 47.3119 39.6306 45.7213C39.947 44.1306 40.728 42.6695 41.8748 41.5227C43.0215 40.3759 44.4826 39.595 46.0733 39.2786C47.6639 38.9622 49.3127 39.1246 50.811 39.7452C52.3094 40.3658 53.59 41.4168 54.4911 42.7653C55.3921 44.1138 55.873 45.6992 55.873 47.321C55.8701 49.4949 55.0053 51.5789 53.4681 53.1161C51.9309 54.6532 49.8469 55.5181 47.673 55.521V55.521ZM47.673 39.706C46.1671 39.7058 44.6949 40.1522 43.4426 40.9887C42.1904 41.8252 41.2143 43.0143 40.6379 44.4056C40.0615 45.7968 39.9105 47.3278 40.2042 48.8048C40.4979 50.2818 41.223 51.6386 42.2878 52.7036C43.3526 53.7685 44.7092 54.4938 46.1862 54.7876C47.6632 55.0815 49.1942 54.9308 50.5855 54.3545C51.9769 53.7783 53.1661 52.8024 54.0028 51.5502C54.8394 50.2981 55.286 48.826 55.286 47.32C55.2839 45.3015 54.4812 43.3662 53.054 41.9388C51.6267 40.5114 49.6916 39.7084 47.673 39.706V39.706Z"></path><path id="vector_41" fill="#501200" d="M47.673 53.823C46.3874 53.823 45.1307 53.4418 44.0618 52.7276C42.9929 52.0133 42.1597 50.9982 41.6678 49.8104C41.1758 48.6227 41.0471 47.3158 41.2979 46.0549C41.5487 44.794 42.1677 43.6358 43.0768 42.7268C43.9858 41.8178 45.144 41.1987 46.4049 40.9479C47.6658 40.6971 48.9727 40.8258 50.1604 41.3178C51.3481 41.8098 52.3633 42.6429 53.0775 43.7118C53.7918 44.7807 54.173 46.0374 54.173 47.323C54.1703 49.0461 53.4847 50.6979 52.2662 51.9163C51.0478 53.1347 49.3961 53.8204 47.673 53.823V53.823ZM47.673 41.405C46.5028 41.4046 45.3587 41.7513 44.3856 42.4011C43.4124 43.051 42.6538 43.9749 42.2058 45.0559C41.7577 46.1369 41.6404 47.3265 41.8685 48.4743C42.0966 49.622 42.66 50.6764 43.4874 51.5039C44.3148 52.3314 45.369 52.895 46.5167 53.1233C47.6644 53.3516 48.8541 53.2344 49.9352 52.7866C51.0163 52.3387 51.9403 51.5803 52.5903 50.6072C53.2403 49.6342 53.5872 48.4902 53.587 47.32C53.5851 45.752 52.9615 44.2487 51.8528 43.1399C50.7442 42.031 49.241 41.4071 47.673 41.405Z"></path></g><g id="group_5"><path id="vector_42" fill="#ffffff" d="M73.73 17.781C77.1829 17.781 79.982 14.972 79.982 11.507C79.982 8.04197 77.1829 5.233 73.73 5.233C70.2771 5.233 67.478 8.04197 67.478 11.507C67.478 14.972 70.2771 17.781 73.73 17.781Z"></path><path id="vector_43" fill="#ffb949" d="M73.743 16.407C76.447 16.407 78.639 14.2074 78.639 11.494C78.639 8.78062 76.447 6.58099 73.743 6.58099C71.0391 6.58099 68.847 8.78062 68.847 11.494C68.847 14.2074 71.0391 16.407 73.743 16.407Z"></path><path id="vector_44" fill="#501200" d="M73.719 18.021C72.4312 18.021 71.1723 17.6391 70.1016 16.9236C69.0308 16.2081 68.1963 15.1912 67.7035 14.0014C67.2108 12.8116 67.0819 11.5024 67.3332 10.2394C67.5845 8.97636 68.2047 7.81621 69.1154 6.90567C70.0261 5.99513 71.1863 5.3751 72.4494 5.12398C73.7125 4.87287 75.0216 5.00195 76.2114 5.4949C77.4011 5.98786 78.4179 6.82255 79.1332 7.89341C79.8485 8.96427 80.2302 10.2232 80.23 11.511C80.2279 13.2371 79.5412 14.8918 78.3206 16.1123C77.1 17.3327 75.4451 18.0191 73.719 18.021V18.021ZM73.719 5.534C72.537 5.53479 71.3818 5.886 70.3995 6.54325C69.4171 7.20049 68.6516 8.13424 68.1998 9.22647C67.7481 10.3187 67.6303 11.5203 67.8613 12.6795C68.0924 13.8387 68.662 14.9033 69.498 15.7388C70.3341 16.5743 71.3991 17.1431 72.5584 17.3734C73.7177 17.6037 74.9193 17.4851 76.0112 17.0326C77.1032 16.5801 78.0364 15.814 78.693 14.8312C79.3496 13.8484 79.7 12.693 79.7 11.511C79.6984 9.92559 79.0676 8.40564 77.9462 7.28496C76.8248 6.16429 75.3044 5.53452 73.719 5.534V5.534Z"></path><path id="vector_45" fill="#501200" d="M73.719 16.68C72.6964 16.68 71.6968 16.3768 70.8465 15.8086C69.9963 15.2405 69.3337 14.433 68.9424 13.4882C68.5511 12.5435 68.4488 11.5039 68.6484 10.501C68.8479 9.4981 69.3404 8.5769 70.0636 7.8539C70.7867 7.13091 71.708 6.63859 72.711 6.43922C73.7139 6.23984 74.7534 6.34237 75.6981 6.73383C76.6428 7.12529 77.4502 7.78809 78.0181 8.63843C78.5861 9.48876 78.8892 10.4884 78.889 11.511C78.8871 12.8815 78.3418 14.1953 77.3726 15.1643C76.4034 16.1333 75.0895 16.6784 73.719 16.68ZM73.719 6.88C72.802 6.88 71.9057 7.1519 71.1433 7.66131C70.3809 8.17072 69.7867 8.89476 69.4359 9.74188C69.085 10.589 68.9932 11.5211 69.172 12.4204C69.3509 13.3197 69.7924 14.1458 70.4408 14.7941C71.0892 15.4425 71.9152 15.884 72.8145 16.0629C73.7138 16.2418 74.646 16.15 75.4931 15.7991C76.3402 15.4482 77.0642 14.854 77.5736 14.0916C78.0831 13.3292 78.355 12.4329 78.355 11.516C78.355 10.286 77.8667 9.1063 76.9974 8.23608C76.1281 7.36587 74.949 6.87632 73.719 6.875V6.88Z"></path></g></g><g id="elements"><g id="group_6"><path id="vector_46" fill="#ff7449" d="M147.931 28.416C147.862 28.413 147.795 28.3875 147.741 28.3434C147.687 28.2993 147.649 28.239 147.632 28.1714C147.616 28.1038 147.621 28.0327 147.649 27.9686C147.676 27.9046 147.723 27.851 147.783 27.816C151.478 25.8984 155.28 24.1936 159.169 22.71C159.246 22.6926 159.326 22.7038 159.395 22.7415C159.463 22.7792 159.516 22.8409 159.542 22.9147C159.569 22.9886 159.567 23.0696 159.538 23.1424C159.509 23.2152 159.454 23.2749 159.384 23.31C153.813 25.3 148.152 28.416 147.931 28.416Z"></path><path id="vector_47" fill="#ff7449" d="M141.815 20.19C141.871 20.132 147.479 14.398 151.174 10.829C151.465 10.548 151.918 11 151.618 11.29C147.932 14.853 142.33 20.58 142.274 20.638C142.214 20.6946 142.134 20.7258 142.051 20.725C141.969 20.7242 141.889 20.6915 141.83 20.6337C141.771 20.576 141.736 20.4976 141.734 20.4149C141.731 20.3322 141.76 20.2517 141.815 20.19V20.19Z"></path><path id="vector_48" fill="#ff7449" d="M134.638 15.794C134.583 15.7947 134.528 15.7809 134.48 15.754C134.432 15.7271 134.392 15.6881 134.363 15.6407C134.335 15.5934 134.319 15.5394 134.318 15.4842C134.317 15.429 134.331 15.3744 134.357 15.326C134.381 15.282 136.769 10.926 138.82 7.37801C138.865 7.31018 138.935 7.2621 139.014 7.24352C139.093 7.22495 139.177 7.23727 139.248 7.27799C139.318 7.31871 139.371 7.38478 139.394 7.46279C139.418 7.54079 139.411 7.62489 139.375 7.69801C134.69 15.809 135.013 15.813 134.638 15.794Z"></path></g><g id="group_7"><path id="vector_49" fill="#ff7449" d="M57.7 17.136C55.674 14.957 51.8 11.044 51.76 11.003C51.474 10.714 51.924 10.257 52.215 10.553C52.254 10.592 56.136 14.513 58.17 16.7C58.2226 16.7631 58.249 16.844 58.2438 16.9261C58.2385 17.0081 58.202 17.0849 58.1417 17.1408C58.0815 17.1967 58.0021 17.2274 57.9199 17.2265C57.8378 17.2256 57.7591 17.1932 57.7 17.136V17.136Z"></path><path id="vector_50" fill="#ff7449" d="M53.7541 21.429C53.5111 21.382 47.2371 16.882 47.0421 16.741C46.9743 16.6911 46.929 16.6165 46.9159 16.5333C46.9028 16.4502 46.9229 16.3653 46.972 16.2969C47.021 16.2286 47.095 16.1823 47.1779 16.1681C47.2609 16.1538 47.3461 16.1729 47.4151 16.221C47.4661 16.257 52.5391 19.899 53.9931 20.846C54.2801 21.033 54.0441 21.484 53.7541 21.429Z"></path><path id="vector_51" fill="#ff7449" d="M43.5661 26.043C43.5249 26.0342 43.486 26.0173 43.4514 25.9934C43.4168 25.9694 43.3873 25.9389 43.3645 25.9036C43.3417 25.8683 43.3261 25.8288 43.3185 25.7874C43.311 25.7461 43.3117 25.7036 43.3206 25.6625C43.3294 25.6214 43.3463 25.5825 43.3702 25.5479C43.3941 25.5133 43.4246 25.4838 43.46 25.461C43.4953 25.4382 43.5348 25.4226 43.5761 25.415C43.6175 25.4075 43.6599 25.4082 43.7011 25.417C43.7731 25.432 50.7331 26.947 51.7661 27.127C51.8075 27.1342 51.8471 27.1494 51.8826 27.1719C51.9182 27.1944 51.9489 27.2236 51.9732 27.258C51.9974 27.2923 52.0147 27.3311 52.0239 27.3721C52.0331 27.4131 52.0342 27.4556 52.0271 27.497C52.0199 27.5384 52.0046 27.5781 51.9822 27.6136C51.9597 27.6491 51.9305 27.6799 51.8961 27.7041C51.8617 27.7284 51.823 27.7456 51.7819 27.7549C51.7409 27.7641 51.6985 27.7652 51.6571 27.758C51.5201 27.735 43.8151 26.1 43.5661 26.043Z"></path></g></g></g></svg>